<?xml version="1.0" encoding="UTF-8"?>
<svg version="1.1" viewBox="0 0 2048 1105" width="1280" height="1280" xmlns="http://www.w3.org/2000/svg">
<path transform="translate(677,27)" d="m0 0h3l-1 5-10 13-14 17-11 13-10 13-13 18-22 28-9 11-1 2h33l1 1v96l-8 10-7 8-7 9-9 11-10 11-6 15-9 10-12 13-17 17-7 8-11 11-7 8-14 17-11 13-13 15-12 14-11 13-9 11-10 11-9 11-6 8-1 2 89 3 2 1-2 5-9 8-13 10-10 8-14 12-17 13-14 11-7 6h-2l-1 3 105 1h98l-7-16-7-27-4-24-1-14v-22l3-22 5-24 7-21 8-18 11-19 13-18 10-11 7-8 12-11 18-13 13-8 16-9 19-8 23-7 26-5 19-2h48l25 3 23 5 24 8 20 9 17 10 17 12 10 9 8 7 12 13 14 19 9 15 9 19 10 31 3 13 1 10 1 28 2 1-2-82v-123l1-1h147l2 1v97l-1 111 6-1h145v-207l1-1h148l1 372h2l2-4 13-31 13-29 8-20 5-1 22 11 23 9 27 8 26 5 26 3h44l16-2 12-5 6-4 5-5 3-4 1-3v-9l-6-9-12-6-19-5-83-13-27-6-25-7-18-8-12-7-10-8-12-11-10-14-8-16-5-16-3-19v-23l4-21 6-17 9-16 9-12 11-12 8-7 13-9 17-10 23-10 23-7 19-4 23-3 12-1 32-1 29 1 38 4 22 4 25 6 27 9 22 10 2 2-1 5-9 19-16 36-14 33-3 6-2 1-17-8-25-9-17-5-31-6-24-2h-21l-19 2-16 5-10 6-7 7-2 4v9l3 6 8 7 16 6 33 7 37 6 37 7 28 7 16 6 16 8 12 8 13 11 7 7 10 15 7 15 4 15 2 14v25l-3 18-5 16-9 17-12 16-15 15-17 12-21 11-24 9-26 7-32 5-22 2h-53l-30-3-36-6-38-10-28-10-19-9-4-2 1 4v26l-2 3-91 1h-39l-10-1-1-2v-16l1-24-9 6-15 12-14 9-16 8-19 7-24 5-18 2h-32l-22-2-27-7-11-4v-1l17 1h16l16-3 19-8 10-6 10-9 8-9 10-16 8-16 15-37 9-20 9-17 9-12 8-13-2-2-26-5-10-1h-41l-24 3-21 5-20 7-17 9-15 11-13 11-9 11-8 13-8 16-7 22-1 12-2 8-7-6-5-7-2-1h-28l-2-3v-105l-307 1 1 5 9 17 9 12 5 5 8 7 15 9 17 7 15 3 11 1h29l18-2 17-5 16-7 13-8 13-10 3-2 5 1 27 27 7 8 37 37 4 7-2 4-13 12-10 8-18 12-19 10-20 8-25 7-30 5-21 2h-51l-25-3-26-5-33-11-27-13-18-11-13-10-13-11-14-14-10-13-8-10-2-1 1 93-1 2-370 1-8 5-10 9-11 9-13 11-9 7-20 16-14 11-12 10-20 16-13 11-14 11-11 9-13 10-22 18-14 12-13 11-11 7-3 1 2-5 7-9 8-9 11-14 13-16 12-16 13-16 14-18 12-16 12-15 9-12 11-13 9-11 7-8 3-6h-33l-1-1-1-93 4-7 11-12 9-11 13-16 9-11 7-7 7-8 14-17 9-11 11-13 9-11 9-10 9-11 9-10 7-1h28l3 1-1 4-17 16-7 8-9 9-7 8-10 10-7 8-22 22-4 6 3 1 35 1 12 1-4 6-11 12-11 14-9 12-14 18-10 13-13 16-11 14-10 11-10 13 4-1 11-7 13-11 8-7 14-12 16-12 11-9 18-14 10-8 16-13 13-10 14-11 34-28 13-10 17-13 12-9 3-4v-3l-52-2-1-2 9-11 11-9 20-20 8-7 30-30 8-7 4-5 1-2-11-1-36-1-3-1 2-6 13-16 12-16 12-15 12-16 9-11 13-17 8-10 9-14v-2l-11 7-16 12-14 12-13 10-8 7-11 9-14 12-15 12-9 7-10 8-17 14-14 11-13 11-8 7-10 7-5 1-79-1-3-3 4-5 18-13 13-11 11-9 25-20 11-9 13-11 14-11 11-9 17-14 28-21 5-5-227-1-1-1v-119l1-1h199l144-1 34-1 8-4 11-9 14-11 13-11 11-9 14-12 14-11 16-13 9-7 14-12 11-9zm160 341-19 2-16 5-12 6-12 9-10 11-8 13-8 20-1 6 1 1h173l-1-8-8-19-7-12-9-10-9-8-14-8-15-5-9-2z" fill="#020102"/>
<path transform="translate(677,27)" d="m0 0h3l-1 5-10 13-14 17-11 13-10 13-13 18-22 28-9 11-1 2h33l1 1v96l-8 10-7 8-7 9-9 11-10 11-6 15-9 10-12 13-17 17-7 8-11 11-7 8-14 17-11 13-13 15-12 14-11 13-9 11-10 11-9 11-6 8-1 2 89 3 2 1-2 5-9 8-13 10-10 8-14 12-17 13-14 11-7 6h-2v4l-4 2-11 7-8 7-14 11-14 12-14 11-11 9-16 13-14 11-13 11-13 10-11 9-8 9-10 4-7 7-10 8-13 11-14 11-11 9-10 8-14 11-12 10-20 16-13 11-14 11-11 9-13 10-22 18-14 12-13 11-11 7-3 1 2-5 7-9 8-9 11-14 13-16 12-16 13-16 14-18 12-16 12-15 9-12 11-13 9-11 7-8 3-6h-33l-1-1-1-93 4-7 11-12 9-11 13-16 9-11 7-7 7-8 14-17 9-11 11-13 9-11 9-10 9-11 9-10 7-1h28l3 1-1 4-17 16-7 8-9 9-7 8-10 10-7 8-22 22-4 6 3 1 35 1 12 1-4 6-11 12-11 14-9 12-14 18-10 13-13 16-11 14-10 11-10 13 4-1 11-7 13-11 8-7 14-12 16-12 11-9 18-14 10-8 16-13 13-10 14-11 34-28 13-10 17-13 12-9 3-4v-3l-52-2-1-2 9-11 11-9 20-20 8-7 30-30 8-7 4-5 1-2-11-1-36-1-3-1 2-6 13-16 12-16 12-15 12-16 9-11 13-17 8-10 9-14v-2l-11 7-16 12-14 12-13 10-8 7-11 9-14 12-15 12-9 7-10 8-17 14-14 11-13 11-8 7-10 7-5 1-79-1-3-3 4-5 18-13 13-11 11-9 25-20 11-9 13-11 14-11 11-9 17-14 28-21 5-5-227-1-1-1v-119l1-1h199l144-1 34-1 8-4 11-9 14-11 13-11 11-9 14-12 14-11 16-13 9-7 14-12 11-9z" fill="#FDCA83"/>
<path transform="translate(274,444)" d="m0 0h33l3 1-1 4-17 16-7 8-9 9-7 8-10 10-7 8-22 22-4 6 3 1 35 1 12 1-4 6-11 12-11 14-9 12-14 18-10 13-13 16-11 14-10 11-10 13 4-1 11-7 13-11 8-7 14-12 16-12 11-9 18-14 10-8 16-13 13-10 14-11 34-28 13-10 17-13 12-9 3-4 16-4 10-10v3l-7 8-2 4 89 3 2 1-2 5-9 8-13 10-10 8-14 12-17 13-14 11-7 6h-2v4l-4 2-11 7-8 7-14 11-14 12-14 11-11 9-16 13-14 11-13 11-13 10-11 9-8 9-10 4-7 7-10 8-13 11-14 11-11 9-10 8-14 11-12 10-20 16-13 11-14 11-11 9-13 10-22 18-14 12-13 11-11 7-3 1 2-5 7-9 8-9 11-14 13-16 12-16 13-16 14-18 12-16 12-15 9-12 11-13 9-11 7-8 3-6h-33l-1-1-1-93 4-7 11-12 9-11 13-16 9-11 7-7 7-8 14-17 9-11 11-13 9-11 9-10 9-11 9-10z" fill="#FECA83"/>
<path transform="translate(494,147)" d="m0 0h34l-6 7-9 8-28 22-17 14-11 9-17 14-28 22-16 13-13 10-6 3h-226l-1-1v-119l1-1h199z" fill="#010001"/>
<path transform="translate(274,444)" d="m0 0h33l3 1-1 4-17 16-7 8-9 9-7 8-10 10-7 8-22 22-4 6 3 1 35 1 12 1-4 6-11 12-11 14-9 12-14 18-10 13-13 16-11 14-10 11-10 13 4-1 11-7 13-11 16-14 3 1-2 5-6 10-10 13-13 16-11 13-2 1h-32l-1-1-1-93 4-7 11-12 9-11 13-16 9-11 7-7 7-8 14-17 9-11 11-13 9-11 9-10 9-11 9-10z" fill="#FECA84"/>
<path transform="translate(590,147)" d="m0 0h32l1 1v96l-8 10-7 8-7 9-9 11-10 11-3 8-2 1h-25l-52-4-21-3-1-4 13-19 11-14 14-17 12-16 13-17 10-13 11-14 13-16 8-10z" fill="#010001"/>
<path transform="translate(1075,701)" d="m0 0h8l19 5 16 7 16 8 14 8 1 3-6-1-19-6-18-4-18-1-15 2-15 4-16 8-11 8-10 9-9 11-7 12 10-10 10-8 11-7 16-8 15-5 21-3h24l10 1 1 1v7l-4 18-8 20-7 11-7 8-8 6-11 4-15 3-34 3-31 2-15 4h-9l-2-2 1-9 6-23 6-15 8-16 10-15 9-11 7-7 13-9 16-7 15-4z" fill="#040304"/>
<path transform="translate(144,598)" d="m0 0h31l30 1 19 2v4l-11 14-13 16-9 11-12 14-6 9 11-6 16-13 10-9 7-6 3 1-2 5-6 10-10 13-13 16-11 13-2 1h-32z" fill="#020102"/>
<path transform="translate(1943,835)" d="m0 0h13l10 3 10 9 6 11 4 10 3 7 1 7v24l-3 4-7-1-5-4-6 1-8 4-3 1h-20l-8-3-10-9-6-11-2-10v-8l3-12 5-9 8-8 11-5zm2 15-8 4-5 6-3 6v12l4 10 7 7 6 2h11l8-3 5-6 1-7-1-2-23-1-4-3-1-5 6-1h24l10-1 1-3-10-3-15-10-6-2z" fill="#0C0A0A"/>
<path transform="translate(1813,837)" d="m0 0h14l8 5 5 8 8 16 9 14 5 5-1-10v-13l1-23 2-2h13l1 1v69l-4 3h-9l-7-2-5-5-6-10-12-22-3-4v-2l-4-1v17l1 25-3 3-10 1-5-2-1-6v-20l1-40z" fill="#0C0A09"/>
<path transform="translate(1285,836)" d="m0 0h7l10 3 5 5 10 17 8 14 7 9 1-44 1-3 2-1h10l2 1 1 3v67l-4 3h-12l-6-4-7-10-12-22-8-11-1 43-3 3-3 1h-7l-3-2-1-3 1-66z" fill="#110E0C"/>
<path transform="translate(1201,835)" d="m0 0h10l14 3 9 6 7 8 5 11 1 11-2 12-5 10-8 8-12 6-10 2h-9l-12-3-9-6-7-8-5-10-2-9v-7l4-12 7-10 7-6 10-5zm1 15-8 3-5 4-4 6-2 8 1 9 5 10 7 5 9 2 10-1 9-6 5-9v-13l-4-10-7-6-6-2z" fill="#120F0E"/>
<path transform="translate(1089,835)" d="m0 0h13l10 3 6 4 8 9 3 10-1 5-10-1-5-3-7-7-8-4-9 1-8 5-4 7-1 11 3 10 7 8 5 2 8 1 8-2 6-4 8-10 5-3 6 1 2 3v7l-7 11-8 7-8 4-9 2h-11l-9-2-11-7-7-9-4-8-2-10 1-13 7-14 7-7 11-6z" fill="#0B0908"/>
<path transform="translate(1483,837)" d="m0 0h13l3 2v38l2 12 2 6 7 1h8l6-3 3-7v-45l1-3 2-1h11l5 2v43l-3 14-9 10-7 4-9 2h-10l-9-2-7-4-7-9-4-13-1-7v-36z" fill="#0A0808"/>
<path transform="translate(1407,835)" d="m0 0h13l11 4 6 5 4 11-2 4-6 1-15-10-3-1h-7l-3 1-1 2v9l16 4 13 4 8 5 5 6v13l-4 8-9 8-8 3h-20l-10-4-5-5-4-5-2-4v-10l4-1 10 7 8 6 7 2 9-1 5-3 2-4-1-6-22-4-14-7-7-6v-12l5-10 7-6z" fill="#171413"/>
<path transform="translate(1257,538)" d="m0 0h7l-3 3-24 7-20 9-18 11-14 12-12 12-9 13-8 14-8 17-8 21-3 11-5-1-6-4-5-4-1-6 5-18 9-21 11-16 11-13 10-10 11-8 15-9 21-9 18-6 12-3z" fill="#070606"/>
<path transform="translate(912,967)" d="m0 0 7 1v8l-6 32-3 18-3 4-9 1-6-3-6-10-8-20-4-8-3 12-3 25-1 2-3 1h-10l-2-3v-7l5-23 4-23 3-5 2-1h9l4 2 7 14 5 15 6 9v2h2v-8l4-22 4-10z" fill="#FECA83"/>
<path transform="translate(1065,966)" d="m0 0h9l11 4 10 9 3 8v14l-5 13-9 10-6 4-12 4h-16l-7-3-7-6-6-12v-13l5-12 9-11 12-7zm-1 13-10 4-5 6-3 6-1 10 3 8 4 4 4 2h9l9-4 5-5 3-5 1-4v-8l-3-8-6-5-2-1z" fill="#FECA83"/>
<path transform="translate(226,966)" d="m0 0h8l9 2 10 7 4 5 3 8v8l-4 16-7 9-9 7-13 4h-15l-8-3-7-7-5-11v-13l4-11 8-10 11-8zm-3 13-9 6-5 6-2 6v11l3 6 8 5h10l6-3 5-4 4-6 1-3v-12l-3-6-5-5-2-1z" fill="#FECA83"/>
<path transform="translate(791,967)" d="m0 0h14l11 4 8 7 4 11-1 13-4 11-6 8-7 6-10 4-5 1h-16l-7-3-6-5-5-8-2-7v-7l4-13 9-12 11-8zm1 12-10 5-5 6-2 7v9l3 8 6 4 3 1h8l9-4 6-7 2-6v-11l-4-8-6-4z" fill="#FECA83"/>
<path transform="translate(397,967)" d="m0 0 16 1 9 3 6 5 3 8-2 9-7 8-4 5-1 5 10 14 1 4-3 2h-8l-7-2-9-18-6-4-4-1-3 6-1 16-4 2h-10l-3-5 8-45 3-9 5-3zm1 10-5 3-2 5v11l3 1h15l5-5 1-6-3-5-6-3z" fill="#FECA83"/>
<path transform="translate(1675,967)" d="m0 0 16 1 9 3 5 5 3 5v10l-9 11-4 5v5l9 11 1 7h-16l-3-3-6-15-4-3-8-1-2 3-2 16-4 3-8 1-3-2v-10l6-36 3-11 3-3 2-1zm0 10-5 4-1 2v14l16 1 5-3 3-6-1-5-5-5-8-2z" fill="#FECA83"/>
<path transform="translate(1223,968)" d="m0 0h25l11 4 6 5 1 3v12l-6 8-3 3h-2l-2 4 1 5 8 11 1 6-3 2h-8l-5-2-4-6-4-10-5-5-4-2h-3l-2 4-1 15-2 5h-11l-4-2 1-12 5-29 3-13 5-5zm13 9-5 3-3 4-1 11 6 2 13 1 4-4 1-2v-8l-4-5z" fill="#FECA83"/>
<path transform="translate(300,967)" d="m0 0 8 1 1 4-3 14-2 13v15l3 4 8 1 6-3 4-5 3-11 3-26 2-5 3-1h8l3 1v9l-4 27-4 12-7 9-7 4-7 2h-14l-9-3-7-8-2-6v-10l7-33 4-4z" fill="#FECA83"/>
<path transform="translate(1136,968)" d="m0 0h9l2 1-1 10-4 18-1 14 2 6 4 2h7l5-3 4-6 4-18 3-18 3-5 3-1h7l2 1-1 21-4 20-6 12-7 7-9 3h-17l-9-4-5-6-2-6v-10l4-26 3-9z" fill="#FECA83"/>
<path transform="translate(658,966)" d="m0 0 11 1 7 3 5 7 2 11-3 1-9-5-9-6h-7l-3 3 1 6 7 5 17 7 5 4 1 2v10l-3 6-5 6-8 4-4 1h-15l-9-3-7-6-3-7 1-10 5 2 15 10 5 2h6l4-2 2-4v-5l-16-5-12-8-4-4v-7l5-10 8-7z" fill="#FECA83"/>
<path transform="translate(1879,967)" d="m0 0h15l11 3 4 5 2 5v8l-9-2-10-7-8-1-3 2-1 6 4 4 13 5 11 6 3 4v11l-6 10-5 4-7 2h-17l-9-3-7-8-1-2v-9l2-5 7 6 11 8 3 1h8l4-4v-6l-6-4-15-6-9-6v-7l4-10 8-9z" fill="#FECA83"/>
<path transform="translate(1660,838)" d="m0 0h60l2 3v7l-3 4-19 1-1 55-1 1h-15l-1-1-1-54-19-2-3-4v-8z" fill="#131111"/>
<path transform="translate(1508,968)" d="m0 0h23l9 2 8 5 3 4 1 3v9l-4 8-5 6-8 4-3 1-19 1-3 3-3 14-2 2h-10l-2-3 1-11 6-36 2-9 2-2zm10 9-4 4-1 5v12l2 2h9l8-3 4-5 1-7-5-5-9-3z" fill="#FECA83"/>
<path transform="translate(1348,968)" d="m0 0h33l4 2-1 8-2 4-13-2h-8l-3 1-2 12h15l7 1v7l-2 2-23 1-2 4v6l2 3 3 1h12l9-1 2 3v6l-3 4-4 1h-20l-14-1-3-2v-11l5-33 3-13z" fill="#FECA83"/>
<path transform="translate(1463,967)" d="m0 0h7l-1 7-10 11-7 9-3 4 1 5 12 22 1 5-2 1h-8l-6-3-10-15-5 2-10 13-4 2-10 1-3-2 2-5 14-15 7-8-1-7-11-21-1-5h9l5 2 7 9 5 6 5-3 11-12z" fill="#FECA83"/>
<path transform="translate(1587,968)" d="m0 0h34l6 1v8l-2 4-7-1-19-1-1 11v4h18l4 3-1 5-2 1-22 1-1 2v11l26 1v9l-3 3h-38l-3-2 1-14 6-36 2-9z" fill="#FECA83"/>
<path transform="translate(1584,837)" d="m0 0 15 1 2 1 1 54 2 1 26 1 2 4v8l-3 2h-45l-1-1-1-14v-54z" fill="#040203"/>
<path transform="translate(1952,968)" d="m0 0h27l8 1 2 2-1 8-4 2-1-1h-21l-1 4v10h15l6 3v4l-6 2-20 1 1 11 3 2 11 1h11l1 1v7l-4 4-18 1-18-1-4-4 2-19 5-27 3-11z" fill="#FECA83"/>
<path transform="translate(515,370)" d="m0 0 2 1-10 11-8 10-11 13-13 15-12 14-11 13-9 11-10 11-5 6-8 7-6 5-13 2-1-3-2-1 2-5 9-10 24-24 8-7 10-10 6-5 7-8 14-14 8-7 14-13 11-9z" fill="#060405"/>
<path transform="translate(554,967)" d="m0 0h8l1 3-4 10-8 16-13 25-5 7-3 2h-13l-4-4-10-56v-2h12l3 1 2 9 4 27 2 5 2 1 2-5 10-18 8-16z" fill="#FECA83"/>
<path transform="translate(1741,968)" d="m0 0h29l21 1 1 1v6l-3 5-2 1-13 1-3 7-4 23-3 15-6 2h-7l-2-3 2-14 4-23v-6l-14-3-2-3v-8z" fill="#FECA83"/>
<path transform="translate(163,966)" d="m0 0h5v7l-6 10-7 10-10 17-5 19-5 2h-6l-2-4v-23l-9-25-3-10 1-1h9l4 2 4 7 4 13 2 4 6-7 10-16 5-4z" fill="#FDC982"/>
<path transform="translate(274,444)" d="m0 0 14 1-2 4-12 13-12 12-4 5-16 16-1 2h-2l-2 4-8 9-13 13-7 8-8 8-8 7-10 9-9 8v-3l9-11 11-12 9-10 13-16 9-11 11-13 9-11 9-10 9-11 9-10z" fill="#050405"/>
<path transform="translate(1758,837)" d="m0 0h13l2 1v70l-6 2-11-1-1-2v-40l1-29z" fill="#100E0E"/>
<path transform="translate(727,967)" d="m0 0 7 1 1 1-1 9-7 46-3 5-1 1h-11l-3-3 4-19 6-34 3-5z" fill="#FECA83"/>
<path transform="translate(601,967)" d="m0 0 5 2v7l-3 17-5 35-2 2h-11l-4-3 5-29 5-27 4-3z" fill="#FECA83"/>
<path transform="translate(1824,968)" d="m0 0h8l3 1-1 11-7 43-2 6-2 1h-10l-3-5 10-55z" fill="#FECA83"/>
<path transform="translate(1196,270)" d="m0 0h16l2 1v97l-1 107h-2v-204h-15z" fill="#FEF9F4"/>
<path transform="translate(151,148)" d="m0 0h5l-2 1v120l-4-1v-119z" fill="#FED399"/>
<path transform="translate(1065,270)" d="m0 0 3 1-1 137v37l-2-2-1-49v-123z" fill="#FEF2E4"/>
<path transform="translate(1257,538)" d="m0 0h7l-3 3-24 7-20 9-8 5-2-1 6-4 3-7 2-3 20-6z" fill="#FEF8F2"/>
<path transform="translate(947,1016)" d="m0 0h5l4 5 1 2v8l-6 9-6 4 2-8-3-7v-9z" fill="#FEFAF6"/>
<path transform="translate(1584,837)" d="m0 0 15 1 2 2-15-1-1 70-2-1-1-14v-54z" fill="#FED9A8"/>
<path transform="translate(1065,270)" d="m0 0 3 1-1 73-2-3-1-48v-22z" fill="#FECA83"/>
<path transform="translate(1123,717)" d="m0 0 5 1 17 9 4 3v2l-6-1-19-6-4-2h3z" fill="#FEF9F5"/>
<path transform="translate(1227,544)" d="m0 0 4 1v5l-19 10-5 2 4-4 2-1 3-7 2-3z" fill="#FEF6EE"/>
<path transform="translate(1698,852)" d="m0 0h7v1h-5l-1 55-3 1 1-52z" fill="#FEEFDD"/>
<path transform="translate(1483,837)" d="m0 0h13l3 2-1 2-1-1h-11l-3 2-1 42h-1l-1-7v-36z" fill="#FEE8CB"/>
<path transform="translate(151,148)" d="m0 0h5l-2 1v93h-1l-1-90-2 4v-7z" fill="#FEFCFB"/>
<path transform="translate(1584,842)" d="m0 0h1v67l-2-1-1-17z" fill="#FEFBF9"/>
<path transform="translate(1864,837)" d="m0 0 3 1-2 3-1 32-1 11h-1l-1-9v-13l1-23z" fill="#FECD8B"/>
<path transform="translate(1165,686)" d="m0 0 17 1 9 1-2 2-3 1-1 2-9-2-11-4z" fill="#FEF1E2"/>
<path transform="translate(1103,627)" d="m0 0h4l-1 9-1 5-6-5 1-5z" fill="#0E0C0B"/>
<path transform="translate(1227,544)" d="m0 0 4 1v5l-6 3h-3l-2-6z" fill="#130F0C"/>
<path transform="translate(1126,877)" d="m0 0 6 1v3l-5-1-1 3-2-1-4 5-7 6-2-1 6-7 5-6z" fill="#FEF3E7"/>
<path transform="translate(1123,717)" d="m0 0 5 1 5 3v2l-9 2-4-2h3z" fill="#423C36"/>
<path transform="translate(1162,538)" d="m0 0 3 1-12 9-9 7v-3l11-10z" fill="#FEFAF6"/>
<path transform="translate(1979,854)" d="m0 0 3 4 4 10 3 7v6h-2l-8-24z" fill="#FEE7C9"/>
<path transform="translate(1075,875)" d="m0 0h1l3 10 7 8 5 2 7 1-3 2-6-1-9-6-4-7z" fill="#FEF0DE"/>
<path transform="translate(1483,837)" d="m0 0h13l3 2-1 2-1-1h-11l-3 2-1 4h-2l1-7z" fill="#FED7A3"/>
<path transform="translate(1212,850)" d="m0 0h7l6 4 4 9v5l-2-4-5-8-4-3-6-2z" fill="#FED8A4"/>
<path transform="translate(1302,864)" d="m0 0 5 5 7 10 4 8-1 3-11-19-4-5z" fill="#FED6A0"/>
<path transform="translate(1698,881)" d="m0 0h1v27l-3 1v-10l1-1z" fill="#FEE6C7"/>
<path transform="translate(1370,647)" d="m0 0 2 1-2 4-8 6-6 5-2-1 11-11z" fill="#FEF7F0"/>
<path transform="translate(1065,270)" d="m0 0 3 1-1 21-3 1v-22z" fill="#FEFBFA"/>
<path transform="translate(677,27)" d="m0 0h3l-1 5-6 8v-3l1-3-2-1 2-4z" fill="#FEFDFD"/>
<path transform="translate(1942,874)" d="m0 0 6 2 22 2v1h-23z" fill="#FEF4E7"/>
<path transform="translate(1861,862)" d="m0 0h3v11l-1 11h-1l-1-9z" fill="#FED9A8"/>
<path transform="translate(1530,837)" d="m0 0h11l5 2-1 3v-2h-17v-2z" fill="#FED398"/>
<path transform="translate(1139,725)" d="m0 0 6 2 4 3v2l-6-1-5-2z" fill="#DDC8AD"/>
<path transform="translate(1422,842)" d="m0 0 4 4 4 10 1 2-6-3-3-10z" fill="#FEE9CE"/>
<path transform="translate(1106,854)" d="m0 0 5 2 9 8-2 1-5-3-7-7z" fill="#FEF4E8"/>
<path transform="translate(1285,836)" d="m0 0h7l5 1v2h-6l-2 1-6 1z" fill="#FECE8D"/>
<path transform="translate(1103,627)" d="m0 0h4v6l-3-3-3 6h-2l1-5z" fill="#FEDEB3"/>
<path transform="translate(1427,894)" d="m0 0 1 2-5 7-3 1 2-7z" fill="#FEF4E8"/>
<path transform="translate(38,870)" d="m0 0h2v2h2l-1 3-7 3 2-5z" fill="#FEFDFD"/>
<path transform="translate(388,386)" d="m0 0 18 2v1h-15l-3-1z" fill="#FEFDFD"/>
<path transform="translate(872,266)" d="m0 0h8l9 2-1 2-9-1-7-2z" fill="#FEE7C8"/>
<path transform="translate(182,664)" d="m0 0v3l-7 8-1-2 1-5z" fill="#FEE4C2"/>
<path transform="translate(1126,877)" d="m0 0 6 1v3l-5-1-1 3-2-1 1-1-2-2z" fill="#FEF1E0"/>
<path transform="translate(1401,877)" d="m0 0h7l5 2v2l-10-2z" fill="#FEEDD7"/>
<path transform="translate(1123,717)" d="m0 0 5 1-2 4-2 2-4-1h3z" fill="#FEE9CE"/>
<path transform="translate(1163,685)" d="m0 0" fill="#FEFDFD"/>
</svg>
